<svg width="456" height="456" viewBox="0 0 456 456" fill="none" xmlns="http://www.w3.org/2000/svg">
	<g clip-path="url(#clip0_4_10)">
		<path d="M165.999 255.215C160.592 248.956 156.601 241.612 154.298 233.681C151.995 225.751 151.432 217.419 152.649 209.253C153.866 201.087 156.834 193.278 161.351 186.355C165.868 179.432 171.829 173.557 178.829 169.131C185.828 164.704 193.702 161.829 201.917 160.7C210.131 159.572 218.493 160.216 226.435 162.59C234.377 164.963 241.713 169.011 247.945 174.457C254.177 179.903 259.159 186.62 262.552 194.153" fill="url(#paint0_linear_4_10)"/>
		<path d="M199.31 240.038C200.001 228.117 204.167 216.66 211.295 207.079C218.423 197.499 228.199 190.215 239.419 186.126C250.638 182.038 262.809 181.324 274.429 184.072C286.05 186.821 296.611 192.911 304.81 201.593C313.009 210.274 318.487 221.166 320.567 232.924C322.648 244.683 321.24 256.793 316.518 267.76C311.795 278.728 303.965 288.073 293.993 294.642C284.021 301.211 272.344 304.716 260.403 304.726H188.528C182.793 304.72 177.128 303.467 171.926 301.053C166.724 298.639 162.109 295.121 158.402 290.745C154.695 286.369 151.985 281.239 150.459 275.71C148.934 270.182 148.629 264.388 149.567 258.73C150.505 253.072 152.663 247.686 155.891 242.945C159.119 238.205 163.34 234.223 168.26 231.277C173.181 228.331 178.684 226.491 184.387 225.885C190.089 225.279 195.856 225.92 201.286 227.766" fill="white"/>
		<path d="M199.31 240.038C200.001 228.117 204.167 216.66 211.295 207.079C218.423 197.499 228.199 190.215 239.419 186.126C250.638 182.038 262.809 181.324 274.429 184.072C286.05 186.821 296.611 192.911 304.81 201.593C313.009 210.274 318.487 221.166 320.567 232.924C322.648 244.683 321.24 256.793 316.518 267.76C311.795 278.728 303.965 288.073 293.993 294.642C284.021 301.211 272.344 304.716 260.403 304.726H188.528C182.793 304.72 177.128 303.467 171.926 301.053C166.724 298.639 162.109 295.121 158.402 290.745C154.695 286.369 151.985 281.239 150.459 275.71C148.934 270.182 148.629 264.388 149.567 258.73C150.505 253.072 152.663 247.686 155.891 242.945C159.119 238.205 163.34 234.223 168.26 231.277C173.181 228.331 178.684 226.491 184.387 225.885C190.089 225.279 195.856 225.92 201.286 227.766" stroke="black" stroke-width="4" stroke-linecap="round" stroke-linejoin="round"/>
	</g>
	<defs>
		<linearGradient id="paint0_linear_4_10" x1="207.288" y1="160.16" x2="207.288" y2="255.215" gradientUnits="userSpaceOnUse">
			<stop stop-color="#F59E0B"/>
			<stop offset="1" stop-color="#F5510B"/>
		</linearGradient>
		<clipPath id="clip0_4_10">
			<rect width="200" height="200" fill="white" transform="translate(128 128)"/>
		</clipPath>
	</defs>
</svg>
